<?xml version="1.0" encoding="UTF-8"?>
<svg id="Layer_1" xmlns="http://www.w3.org/2000/svg" version="1.1" viewBox="0 0 396 216">
  <!-- Generator: Adobe Illustrator 29.3.1, SVG Export Plug-In . SVG Version: 2.1.0 Build 151)  -->
  <defs>
    <style>
      .st0, .st1, .st2, .st3, .st4, .st5 {
        fill: #231f20;
      }

      .st0, .st2, .st3, .st6, .st7, .st5 {
        font-family: Helvetica-Light, Helvetica;
        font-weight: 300;
      }

      .st0, .st7 {
        font-size: 11px;
      }

      .st1 {
        font-size: 16px;
      }

      .st1, .st4 {
        font-family: Helvetica-Bold, Helvetica;
        font-weight: 700;
      }

      .st8 {
        stroke: #000001;
      }

      .st8, .st9, .st10, .st11, .st12, .st13 {
        fill: none;
        stroke-linejoin: round;
      }

      .st8, .st9, .st11, .st12, .st13 {
        stroke-width: 1.1px;
      }

      .st9 {
        stroke: #1b1b1b;
      }

      .st14, .st6, .st7 {
        fill: #431853;
      }

      .st14, .st15, .st16 {
        font-family: FreightSansProBold-Regular, 'FreightSans Pro';
        font-size: 8px;
      }

      .st2 {
        font-size: 9px;
      }

      .st10 {
        stroke: #431853;
        stroke-width: 1.1px;
      }

      .st3, .st6, .st5 {
        font-size: 7px;
      }

      .st11 {
        stroke: #208f8d;
      }

      .st12 {
        stroke: #dce123;
      }

      .st17 {
        letter-spacing: 0em;
      }

      .st18 {
        fill: #969595;
      }

      .st13 {
        stroke: #b1b1b1;
      }

      .st4 {
        font-size: 14px;
      }

      .st15 {
        fill: #dce123;
      }

      .st5, .st19 {
        letter-spacing: 0em;
      }

      .st16 {
        fill: #208f8d;
      }
    </style>
  </defs>
  <text class="st7" transform="translate(386.3 62.5) rotate(90)"><tspan x="0" y="0">parasitoid abundance</tspan></text>
  <text class="st0" transform="translate(14.6 160.3) rotate(-90)"><tspan x="0" y="0">aphid abundance</tspan></text>
  <text class="st0" transform="translate(100.8 209.6)"><tspan x="0" y="0">days</tspan></text>
  <g>
    <text class="st3" transform="translate(40 197.9)"><tspan x="0" y="0">0</tspan></text>
    <text class="st3" transform="translate(64.4 197.9)"><tspan x="0" y="0">100</tspan></text>
    <text class="st3" transform="translate(92.7 197.9)"><tspan x="0" y="0">200</tspan></text>
    <text class="st3" transform="translate(120.4 197.9)"><tspan x="0" y="0">0</tspan></text>
    <text class="st3" transform="translate(144.8 197.9)"><tspan x="0" y="0">100</tspan></text>
    <text class="st3" transform="translate(173.1 197.9)"><tspan x="0" y="0">200</tspan></text>
  </g>
  <g>
    <text class="st3" transform="translate(30.8 188.1)"><tspan x="0" y="0">0</tspan></text>
    <text class="st5" transform="translate(26.7 172.4)"><tspan x="0" y="0">40</tspan></text>
    <text class="st5" transform="translate(18.6 152.9)"><tspan x="0" y="0">4000</tspan></text>
  </g>
  <text class="st2" transform="translate(50.3 139.7)"><tspan x="0" y="0">no parasitism</tspan></text>
  <text class="st2" transform="translate(137.1 139.7)"><tspan x="0" y="0">parasitism</tspan></text>
  <text class="st0" transform="translate(279.2 209.6)"><tspan x="0" y="0">days</tspan></text>
  <g>
    <text class="st6" transform="translate(374.2 188.2)"><tspan x="0" y="0">0</tspan></text>
    <text class="st6" transform="translate(374.2 170.9)"><tspan x="0" y="0">20</tspan></text>
    <text class="st6" transform="translate(374.2 153.7)"><tspan x="0" y="0">40</tspan></text>
  </g>
  <g>
    <text class="st3" transform="translate(211.8 197.9)"><tspan x="0" y="0">0</tspan></text>
    <text class="st3" transform="translate(236.2 197.9)"><tspan x="0" y="0">100</tspan></text>
    <text class="st3" transform="translate(264.5 197.9)"><tspan x="0" y="0">200</tspan></text>
    <text class="st3" transform="translate(292.2 197.9)"><tspan x="0" y="0">0</tspan></text>
    <text class="st3" transform="translate(316.6 197.9)"><tspan x="0" y="0">100</tspan></text>
    <text class="st3" transform="translate(344.9 197.9)"><tspan x="0" y="0">200</tspan></text>
  </g>
  <g>
    <text class="st3" transform="translate(40 96.3)"><tspan x="0" y="0">0</tspan></text>
    <text class="st3" transform="translate(64.4 96.3)"><tspan x="0" y="0">100</tspan></text>
    <text class="st3" transform="translate(92.7 96.3)"><tspan x="0" y="0">200</tspan></text>
    <text class="st3" transform="translate(120.4 96.3)"><tspan x="0" y="0">0</tspan></text>
    <text class="st3" transform="translate(144.8 96.3)"><tspan x="0" y="0">100</tspan></text>
    <text class="st3" transform="translate(173.1 96.3)"><tspan x="0" y="0">200</tspan></text>
  </g>
  <g>
    <text class="st3" transform="translate(211.8 96.3)"><tspan x="0" y="0">0</tspan></text>
    <text class="st3" transform="translate(236.2 96.3)"><tspan x="0" y="0">100</tspan></text>
    <text class="st3" transform="translate(264.5 96.3)"><tspan x="0" y="0">200</tspan></text>
    <text class="st3" transform="translate(292.2 96.3)"><tspan x="0" y="0">0</tspan></text>
    <text class="st3" transform="translate(316.6 96.3)"><tspan x="0" y="0">100</tspan></text>
    <text class="st3" transform="translate(344.9 96.3)"><tspan x="0" y="0">200</tspan></text>
  </g>
  <g>
    <polygon class="st10" points="214.2 185.8 230.8 185.8 231.9 184.9 232.8 185.8 251.6 185.8 252.5 184.9 253.6 185.8 255.6 185.8 255.8 184 256.1 183.2 256.4 181.4 256.7 183.2 257 184 257.3 185.8 257.5 185.8 257.8 184.9 258.1 185.8 260.6 185.8 260.9 184.9 261.2 185.8 261.5 184 261.8 184.9 262 185.8 262.3 184 262.6 185.8 266.5 185.8 266.8 184.9 267.7 184.9 267.9 185.8 270.5 185.8 270.8 184.9 271.3 184.9 271.6 184 271.9 185.8 272.2 180.6 272.4 182.3 273 183.2 273.3 182.3 273.8 185.8 275.3 185.8 275.5 184 275.8 179.7 276.1 185.8 276.4 174.5 276.7 182.3 276.9 178.9 277.2 183.2 277.5 184 277.8 184.9 278.1 185.8 279.2 185.8 279.5 184.9 279.8 185.8 280.3 185.8 280.6 180.6 280.9 177.1 281.2 182.3 281.4 176.3 281.7 183.2 282 182.3 282.3 184.9 282.6 178.9 282.9 177.1 283.1 182.3 283.4 184.9 283.7 184 284 185.8 284.3 184 284.3 185.8 214.2 185.8"/>
    <line class="st13" x1="210.7" y1="185.8" x2="288.1" y2="185.8"/>
    <polyline class="st11" points="214.2 170.9 215.1 170.3 216.2 170.9 217 163.3 218.2 164.7 219 161.1 220.1 161.3 221 160.9 222.1 161.9 222.9 159.6 224.1 157.3 224.9 159 226 167.1 226.9 167.6 228 165.8 228.8 162.5 230 163.6 230.8 161.7 231.9 166.9 232.8 164.4 233.9 162.3 234.7 167.8 235.9 163.5 236.7 166.5 237.8 163.3 238.7 166 239.8 168.7 240.7 164.4 241.8 167.8 242.6 167.1 243.7 168.7 244.6 167.8 245.7 166.5 246.6 170.1 247.7 173.5 248.5 172.6 249.7 165.1 250.5 160.1 251.6 181.1 252.5 174.3 253.6 168.8 254.4 170.9 255.6 170.8 256.4 169 257.5 168.9 258.4 166.7 259.5 175.6 260.6 164.5 261.5 164.8 262.3 172.4 263.4 172.4 264.3 169.1 265.4 168.2 266.3 174 268.2 170.2 270.2 171.4 272.2 165.2 274.1 163.8 276.1 165.6 278.1 166.8 280 177.5 282 170.6 284 172.3"/>
    <polyline class="st12" points="214.2 170.9 215.1 167.1 216.2 163.1 217 161 218.2 158.8 219 154.6 220.1 154.9 221 156 222.1 155.7 222.9 154.3 224.1 151.7 224.9 153.7 226 161.3 226.9 161.1 228 156.3 228.8 155 230 154 230.8 152 231.9 154.4 232.8 157.1 233.9 153.1 234.7 153.7 235.9 153.1 236.7 153.3 237.8 152.3 238.7 154.3 239.8 155.6 240.7 150.7 241.8 154.5 242.6 152.4 243.7 153.1 244.6 152.9 245.7 151.3 246.6 151.3 247.7 153.3 248.5 151.5 249.7 153.3 250.5 156.1 251.6 158.7 252.5 158.9 253.6 154.9 254.4 155.2 255.6 152.6 256.4 155 257.5 155 258.4 154.6 259.5 154.5 260.6 152.8 261.5 155.9 262.3 156.4 263.4 154 264.3 153.8 265.4 153.6 266.3 156 268.2 155 270.2 156.4 272.2 155.4 274.1 155 276.1 160.1 278.1 159.8 280 169.1 282 173 284 173"/>
    <polygon class="st10" points="295.2 185.8 297.2 185.8 298 183.2 299.2 183.2 300 184 301.1 183.2 302 181.4 303.1 177.1 303.9 182.3 305.1 182.3 305.9 183.2 307.9 183.2 309 180.6 309.8 184.9 311 185.8 311.8 184.9 312.9 183.2 313.8 184.9 314.9 184.9 315.8 185.8 317.7 185.8 318.8 184 319.7 183.2 320.8 184.9 321.7 184 322.8 184.9 323.6 180.6 324.8 170.2 325.6 180.6 326.7 178 327.6 178 328.7 179.7 329.5 185.8 330.7 179.7 331.5 183.2 332.6 183.2 333.5 178.9 334.6 174.5 335.4 179.7 336.6 182.3 337.4 184 338.5 183.2 339.4 184 340.5 182.3 341.6 184.9 342.5 184.9 343.3 184 344.4 184 345.3 184.9 346.4 185.8 347.3 184 349.2 185.8 359.1 185.8 361 184 363 185.8 365 185.8 295.2 185.8"/>
    <line class="st13" x1="291.7" y1="185.8" x2="369.1" y2="185.8"/>
    <polyline class="st11" points="295.2 170.9 296.1 173 297.2 171.6 298 176.9 299.2 174.9 300 168.9 301.1 169 302 175.6 303.1 176 303.9 178.1 305.1 178.1 305.9 185.8 307 185.8 307.9 181.1 309 185.8 309.8 182.8 311 182.8 311.8 176.4 312.9 181.1 313.8 181.1 314.9 185.8 315.8 185.8 316.9 172.1 317.7 173.2 318.8 166.8 319.7 167 320.8 174 321.7 167.1 322.8 166.1 323.6 170.2 324.8 163.5 325.6 160.6 326.7 154.8 327.6 160.3 328.7 160.7 329.5 159.2 330.7 158.1 331.5 158.6 332.6 157 333.5 156.7 334.6 156.9 335.4 156.2 336.6 154.9 337.4 154.7 338.5 157.4 339.4 155 340.5 155.9 341.6 154.4 342.5 154.3 343.3 155.1 344.4 157.9 345.3 158.9 346.4 157.2 347.3 156.3 349.2 156.8 351.2 157.2 353.2 157.1 355.1 157.2 357.1 158.9 359.1 168.2 361 167.8 363 164.7 365 170.4"/>
    <polyline class="st12" points="295.2 170.9 296.1 167.4 297.2 164.4 298 173.5 299.2 170.6 300 165.6 301.1 163.5 302 170.2 303.1 175.6 303.9 178.9 305.1 177.5 305.9 178.9 307 182.8 307.9 185.8 309 185.8 309.8 182.8 311 185.8 312.9 185.8 313.8 181.1 314.9 182.8 315.8 182.8 316.9 178.9 317.7 169.3 318.8 164.8 319.7 169.5 320.8 173 321.7 168.7 322.8 170.4 323.6 170.8 324.8 167.7 325.6 167.6 326.7 164.9 327.6 166.8 328.7 168 329.5 170.1 330.7 169.9 331.5 168.2 332.6 164.9 333.5 171 334.6 170.3 335.4 169.1 336.6 171 337.4 170.9 338.5 170.2 339.4 166.4 340.5 165.7 341.6 162.8 342.5 162.8 343.3 162.8 344.4 164.8 345.3 166 346.4 160 347.3 161.9 349.2 159.4 351.2 156.8 353.2 158.4 355.1 156.6 357.1 158.1 359.1 159 361 159.2 363 156 365 157.1"/>
    <line class="st8" x1="210.7" y1="187.7" x2="288.1" y2="187.7"/>
    <line class="st8" x1="291.7" y1="187.7" x2="369.1" y2="187.7"/>
    <line class="st8" x1="210.7" y1="187.7" x2="210.7" y2="144"/>
    <line class="st8" x1="369.1" y1="187.7" x2="369.1" y2="144"/>
    <line class="st9" x1="214.2" y1="189.9" x2="214.2" y2="187.7"/>
    <line class="st9" x1="242.3" y1="189.9" x2="242.3" y2="187.7"/>
    <line class="st9" x1="270.5" y1="189.9" x2="270.5" y2="187.7"/>
    <line class="st9" x1="295.2" y1="189.9" x2="295.2" y2="187.7"/>
    <line class="st9" x1="323.3" y1="189.9" x2="323.3" y2="187.7"/>
    <line class="st9" x1="351.5" y1="189.9" x2="351.5" y2="187.7"/>
    <g>
      <line class="st9" x1="369.1" y1="185.8" x2="371.2" y2="185.8"/>
      <line class="st9" x1="369.1" y1="168.5" x2="371.2" y2="168.5"/>
      <line class="st9" x1="369.1" y1="151.3" x2="371.2" y2="151.3"/>
    </g>
    <line class="st9" x1="208.5" y1="185.8" x2="210.7" y2="185.8"/>
    <line class="st9" x1="208.5" y1="170" x2="210.7" y2="170"/>
    <line class="st9" x1="208.5" y1="150.5" x2="210.7" y2="150.5"/>
  </g>
  <text class="st2" transform="translate(222.1 139.7)"><tspan x="0" y="0">no parasitism</tspan></text>
  <text class="st2" transform="translate(308.9 139.7)"><tspan x="0" y="0">parasitism</tspan></text>
  <g>
    <line class="st9" x1="41.9" y1="89.1" x2="41.9" y2="86.9"/>
    <line class="st9" x1="70.2" y1="89.1" x2="70.2" y2="86.9"/>
    <line class="st9" x1="98.6" y1="89.1" x2="98.6" y2="86.9"/>
    <line class="st9" x1="122.4" y1="89.1" x2="122.4" y2="86.9"/>
    <line class="st9" x1="150.7" y1="89.1" x2="150.7" y2="86.9"/>
    <line class="st9" x1="179" y1="89.1" x2="179" y2="86.9"/>
    <line class="st9" x1="36.2" y1="85" x2="38.4" y2="85"/>
    <line class="st9" x1="36.2" y1="73.2" x2="38.4" y2="73.2"/>
    <line class="st9" x1="36.2" y1="61.4" x2="38.4" y2="61.4"/>
    <line class="st9" x1="36.2" y1="49.7" x2="38.4" y2="49.7"/>
    <line class="st13" x1="38.4" y1="85.1" x2="116.3" y2="85.1"/>
    <polyline class="st11" points="41.9 67.3 42.2 60.5 42.5 57.7 42.8 56.3 43.1 55.7 43.3 55.6 43.6 55.7 43.9 56.1 44.2 56.6 44.5 57.2 44.8 57.3 45 56.3 45.3 54.9 45.6 53.4 45.9 52.4 46.2 51.8 46.5 51.6 46.7 51.7 47 52 47.3 52.5 47.6 52.9 47.9 53.1 48.2 53 48.4 52.7 48.7 52.3 49 51.8 49.3 51.5 49.6 51.4 49.9 51.5 50.1 51.7 50.4 52 50.7 52.4 51 52.6 51.3 52.8 51.6 52.8 51.8 52.8 52.1 52.6 52.4 52.5 52.7 52.5 53 52.5 53.3 52.6 53.5 52.8 53.8 53 54.1 53.1 54.4 53.3 54.7 53.4 55 53.5 55.2 53.5 55.5 53.5 55.8 53.5 56.1 53.5 56.4 53.6 56.7 53.7 56.9 53.8 57.2 53.9 57.5 54.1 57.8 54.2 58.1 54.3 58.4 54.4 58.6 54.4 58.9 54.5 59.2 54.5 59.5 54.6 59.8 54.7 60 54.8 60.3 54.9 60.6 55 60.9 55.1 61.2 55.2 61.5 55.3 61.7 55.4 62 55.4 62.3 55.5 62.6 55.6 62.9 55.7 63.2 55.8 63.4 55.9 63.7 56 64 56.1 64.3 56.2 64.6 56.3 64.9 56.3 65.1 56.4 65.4 56.5 65.7 56.6 66 56.7 66.3 56.8 66.6 56.9 66.8 57 67.1 57.1 67.4 57.2 68 57.4 68.3 57.4 68.8 57.6 69.1 57.7 69.4 57.8 69.7 57.9 70 58 70.2 58.1 70.5 58.2 70.8 58.3 71.4 58.5 71.7 58.6 71.9 58.7 72.5 58.9 72.8 59 73.1 59.1 73.4 59.1 73.6 59.2 73.9 59.3 74.2 59.4 74.5 59.5 75.1 59.7 75.3 59.8 75.9 60 76.2 60.1 76.5 60.2 76.8 60.3 77 60.4 77.6 60.6 77.9 60.7 78.2 60.8 78.5 60.9 78.7 61 79.3 61.2 79.6 61.3 80.2 61.5 80.4 61.6 80.7 61.7 81 61.8 81.3 61.9 81.6 62 81.9 62.1 82.1 62.2 82.4 62.3 82.7 62.4 83 62.5 83.3 62.6 83.6 62.7 83.8 62.8 84.1 62.9 84.4 63 84.7 63.1 85 63.2 85.5 63.4 85.8 63.5 86.4 63.7 86.7 63.8 87.2 64 87.5 64.1 88.1 64.3 88.4 64.4 88.7 64.5 88.9 64.6 89.2 64.7 89.8 64.9 90.1 65 90.6 65.2 90.9 65.3 91.2 65.4 91.5 65.5 91.8 65.6 92.1 65.7 92.3 65.8 92.6 65.9 92.9 66 93.2 66.1 93.5 66.2 93.8 66.3 94 66.4 94.3 66.5 94.6 66.6 94.9 66.7 95.2 66.8 95.4 66.9 95.7 67 96 67.1 96.3 67.2 96.6 67.3 96.9 67.4 97.1 67.5 97.7 67.7 98 67.8 98.6 68 98.8 68.1 99.4 68.4 99.7 68.5 100 68.6 100.3 68.7 100.5 68.8 101.1 69 101.4 69.1 102 69.3 102.2 69.4 102.8 69.6 103.1 69.7 103.7 69.9 103.9 70 104.8 70.3 105.1 70.4 105.6 70.6 105.9 70.7 106.5 70.9 106.8 71 107.3 71.2 107.6 71.3 108.2 71.5 108.5 71.6 109 71.8 109.3 71.9 109.9 72.1 110.2 72.2 110.5 72.3 110.7 72.4 111 72.5 111.6 72.8 111.9 72.9 112.4 73.1 112.7 73.2"/>
    <polyline class="st12" points="41.9 67.3 42.2 59.7 42.5 56.7 42.8 55.1 43.1 54.4 43.3 54.1 43.6 54.1 43.9 54.3 44.2 54.6 44.5 55.1 44.8 55 45 54 45.3 52.4 45.6 50.8 45.9 49.6 46.2 48.9 46.5 48.5 46.7 48.4 47 48.5 47.3 48.8 47.6 49 47.9 49.1 48.2 48.9 48.4 48.5 48.7 47.9 49 47.4 49.3 47 49.6 46.8 49.9 46.7 50.1 46.8 50.4 47 50.7 47.2 51 47.3 51.3 47.3 51.6 47.2 51.8 47.1 52.1 46.9 52.4 46.7 52.7 46.6 53 46.5 53.3 46.5 53.5 46.6 53.8 46.7 54.1 46.7 54.4 46.8 54.7 46.7 55 46.7 55.2 46.6 55.5 46.5 55.8 46.4 56.1 46.3 56.4 46.3 56.7 46.3 56.9 46.3 57.2 46.3 57.5 46.4 57.8 46.4 58.1 46.3 58.4 46.3 58.6 46.3 58.9 46.2 59.2 46.2 59.5 46.1 59.8 46.1 60 46.1 60.3 46.1 60.6 46.1 60.9 46.1 61.2 46.1 61.5 46.1 61.7 46.1 62 46 62.3 46 62.6 46 62.9 46 63.2 45.9 63.4 45.9 63.7 45.9 64 45.9 64.3 45.9 64.6 45.9 64.9 45.9 65.1 45.9 65.4 45.9 65.7 45.8 66 45.8 66.3 45.8 66.6 45.8 66.8 45.8 67.1 45.8 67.4 45.8 68 45.8 68.3 45.7 68.8 45.7 69.1 45.7 69.7 45.7 70 45.7 70.5 45.7 70.8 45.7 71.1 45.6 71.7 45.6 71.9 45.6 72.5 45.6 72.8 45.6 73.4 45.6 73.6 45.6 73.9 45.6 74.2 45.6 74.5 45.5 74.8 45.5 75.1 45.5 75.3 45.5 75.9 45.5 76.2 45.5 76.5 45.5 76.8 45.5 77 45.5 77.6 45.5 77.9 45.5 78.5 45.5 78.7 45.5 79.3 45.4 79.6 45.4 79.9 45.4 80.2 45.4 80.4 45.4 80.7 45.4 81 45.4 81.3 45.4 81.6 45.4 82.1 45.4 82.4 45.4 82.7 45.4 83 45.4 83.3 45.4 83.8 45.4 84.1 45.4 84.7 45.4 85 45.4 85.3 45.4 85.5 45.4 85.8 45.4 86.1 45.3 86.4 45.3 86.7 45.3 87 45.3 87.2 45.3 87.5 45.3 87.8 45.3 88.1 45.3 88.4 45.3 88.7 45.3 88.9 45.3 89.2 45.3 89.8 45.3 90.1 45.3 90.6 45.3 90.9 45.3 91.2 45.3 91.5 45.3 91.8 45.3 92.3 45.3 92.6 45.3 93.2 45.3 93.5 45.3 93.8 45.3 94 45.3 94.3 45.3 94.6 45.3 95.2 45.3 95.4 45.3 96 45.3 96.3 45.3 96.6 45.3 96.9 45.3 97.1 45.3 97.7 45.3 98 45.3 98.6 45.3 98.8 45.3 99.1 45.3 99.4 45.3 99.7 45.2 100 45.2 100.3 45.2 100.5 45.2 100.8 45.2 101.1 45.2 101.4 45.2 102 45.2 102.2 45.2 102.5 45.2 102.8 45.2 103.1 45.2 103.4 45.2 103.7 45.2 103.9 45.2 104.2 45.2 104.5 45.2 104.8 45.2 105.1 45.2 105.4 45.2 105.9 45.2 106.2 45.2 106.5 45.2 106.8 45.2 107.3 45.2 107.6 45.2 107.9 45.2 108.2 45.2 108.8 45.2 109 45.2 109.6 45.2 109.9 45.2 110.7 45.2 111 45.2 111.6 45.2 111.9 45.2 112.7 45.2"/>
    <polyline class="st10" points="122.4 85 124.4 85 124.7 82.9 125 83.5 125.2 85 126.9 85 127.2 83.6 127.5 79.6 127.8 77.6 128.1 78 128.4 80.1 128.6 81.6 128.9 82.7 129.2 83.4 129.5 83.9 129.8 85 130.1 85 130.3 82 130.6 76.6 130.9 71.8 131.2 69.5 131.5 69.4 131.8 70.7 132 72.5 132.3 74.5 132.6 76.6 132.9 78.9 133.2 80 133.5 77.8 133.7 73 134 68.3 134.3 65.1 134.6 63.5 134.9 63.3 135.2 64 135.4 65.4 135.7 67.3 136 69.5 136.3 71.5 136.6 72.5 136.9 72.9 137.1 73.3 137.4 74 137.7 75.1 138 76.3 138.3 77.4 138.6 78.5 138.8 79.5 139.1 80.4 139.4 81.1 139.7 81.7 140 82.3 140.3 82.7 140.5 83.1 140.8 83.4 141.1 83.6 141.4 83.8 141.7 85"/>
    <polyline class="st11" points="122.4 67.3 122.7 60.5 123 57.7 123.3 56.3 123.5 55.7 123.8 55.6 124.1 55.7 124.4 56.1 124.7 56.6 125 57.3 125.2 57.4 125.5 56.5 125.8 55.1 126.1 53.6 126.4 52.6 126.7 51.9 126.9 51.6 127.2 51.6 127.5 51.8 127.8 52.2 128.1 52.6 128.4 52.8 128.6 52.7 128.9 52.3 129.2 51.8 129.5 51.3 129.8 50.9 130.1 50.7 130.3 50.6 130.6 50.6 130.9 50.7 131.2 50.9 131.5 51 131.8 51.1 132 51.1 132.3 50.9 132.6 50.8 132.9 50.6 133.2 50.5 133.5 50.4 133.7 50.4 134 50.4 134.3 50.5 134.6 50.5 134.9 50.6 135.2 50.6 135.4 50.6 135.7 50.5 136 50.5 136.3 50.5 136.6 50.5 136.9 50.5 137.1 50.6 137.4 50.6 137.7 50.7 138 50.6 138.3 50.6 138.6 50.4 138.8 50.2 139.1 50 139.4 49.7 139.7 49.5 140 49.2 140.3 49 140.5 48.8 140.8 48.6 141.1 48.4 141.4 48.2 141.7 48 142 47.7 142.2 47.5 142.5 47.3 142.8 47.1 143.1 46.9 143.4 46.8 143.7 46.7 143.9 46.6 144.2 46.5 144.5 46.4 144.8 46.4 145.1 46.3 145.4 46.2 145.6 46.2 145.9 46.1 146.2 46.1 146.5 46 146.8 46 147.1 46 147.3 46 147.6 46 147.9 46 148.2 46 148.5 45.9 148.7 45.9 149 45.9 149.3 45.9 149.6 45.9 149.9 45.9 150.4 45.9 150.7 45.9 151 45.9 151.3 45.9 151.6 45.9 151.9 45.9 152.1 45.9 152.7 45.9 153 45.9 153.3 45.9 153.8 45.9 154.1 45.9 154.7 45.9 155 45.9 155.5 45.9 155.8 45.9 156.1 45.9 156.7 45.9 157.2 45.9 157.5 45.9 157.8 45.9 158.1 45.9 160.1 45.9 160.4 45.9 160.6 45.9 160.9 45.9 161.2 45.9 161.5 45.9 162.1 45.9 162.3 45.9 162.9 45.9 163.2 45.9 163.5 45.9 163.8 45.9 164 45.9 164.3 45.9 164.6 45.9 164.9 45.9 165.2 45.9 165.5 45.9 166 45.9 166.3 45.9 166.6 45.9 166.9 45.9 167.2 45.9 167.4 45.9 167.7 45.9 168 45.9 168.3 45.9 168.6 45.9 168.9 45.9 169.4 45.9 169.7 45.9 170.3 45.9 170.6 45.9 170.8 45.9 171.1 45.9 171.4 45.9 172 45.9 172.3 45.9 172.8 45.9 173.1 45.9 173.7 45.9 174 45.9 174.5 45.9 174.8 46 175.7 46 175.9 46 176.2 46 176.5 46 176.8 46 177.4 46 177.6 46 177.9 46 178.2 46 178.5 46 179 46 179.3 46 179.6 46 179.9 46 180.2 46 180.7 46 181 46 181.6 46 181.9 46 182.2 46 182.4 46 182.7 46 183.3 46 183.6 46 184.1 46 184.4 46 185 46.1 185.3 46.1 185.6 46.1 185.8 46.1 186.1 46.1 186.4 46.1 186.7 46.1 187 46.1 187.3 46.1 187.8 46.1 188.1 46.1 188.7 46.1 189 46.1 189.2 46.1 189.5 46.1 189.8 46.1 190.1 46.2 190.4 46.2 190.7 46.2 190.9 46.2 191.2 46.2 191.5 46.2 192.1 46.2 192.4 46.2 192.9 46.2 193.2 46.2"/>
    <polyline class="st12" points="122.4 67.3 122.7 59.7 123 56.7 123.3 55.1 123.5 54.4 123.8 54.1 124.1 54.1 124.4 54.3 124.7 54.7 125 55.2 125.2 55.2 125.5 54.4 125.8 53.1 126.1 51.9 126.4 50.9 126.7 50.4 126.9 50.1 127.2 50 127.5 50.1 127.8 50.3 128.1 50.6 128.4 50.7 128.6 50.6 128.9 50.4 129.2 50.2 129.5 50.1 129.8 50.2 130.1 50.3 130.3 50.5 130.6 50.7 130.9 51 131.2 51.3 131.5 51.5 131.8 51.7 132 51.8 132.3 52.1 132.6 52.5 132.9 53.1 133.2 53.8 133.5 54.6 133.7 55.4 134 56.3 134.3 57.2 134.6 58.1 134.9 59 135.2 59.8 135.4 60.6 135.7 61.6 136 62.7 136.3 64 136.6 65.3 136.9 66.6 137.1 68 137.4 69.4 137.7 70.7 138 72.1 138.3 73.5 138.6 74.7 138.8 75.9 139.1 77 139.4 77.9 139.7 78.6 140 79.3 140.3 79.8 140.5 80.2 140.8 80.5 141.1 80.8 141.4 80.9 141.7 81 142 80.9 142.2 80.8 142.5 80.6 142.8 80.4 143.1 80.1 143.4 79.8 143.7 79.6 143.9 79.3 144.2 79.1 144.5 78.9 144.8 78.7 145.1 78.5 145.4 78.3 145.6 78.1 145.9 78 146.2 77.8 146.5 77.6 146.8 77.5 147.1 77.3 147.3 77.2 147.6 77.1 147.9 76.9 148.2 76.8 148.5 76.7 148.7 76.6 149 76.4 149.3 76.3 149.6 76.2 149.9 76.1 150.2 76 150.4 75.8 151 75.6 151.3 75.5 151.9 75.3 152.1 75.1 152.7 74.9 153 74.8 153.3 74.7 153.8 74.4 154.1 74.3 154.7 74.1 155 74 155.5 73.7 155.8 73.6 156.4 73.4 156.7 73.3 157 73.2 157.2 73.1 157.5 72.9 157.8 72.8 158.1 72.7 158.4 72.6 158.9 72.4 159.2 72.3 159.8 72 160.1 71.9 160.6 71.7 160.9 71.6 161.5 71.3 161.8 71.2 162.3 71 162.6 70.9 162.9 70.8 163.2 70.6 163.5 70.5 163.8 70.4 164.3 70.2 164.6 70.1 164.9 70 165.2 69.8 165.5 69.7 165.7 69.6 166 69.5 166.3 69.4 166.6 69.3 166.9 69.2 167.2 69 167.4 68.9 167.7 68.8 168 68.7 168.3 68.6 168.6 68.5 168.9 68.4 169.1 68.2 169.4 68.1 169.7 68 170 67.9 170.3 67.8 170.6 67.7 171.1 67.5 171.4 67.3 171.7 67.2 172 67.1 172.3 67 172.8 66.8 173.1 66.7 173.7 66.4 174 66.3 174.5 66.1 174.8 66 175.1 65.9 175.4 65.8 175.7 65.6 175.9 65.5 176.5 65.3 176.8 65.2 177.4 65 177.6 64.8 177.9 64.7 178.2 64.6 178.5 64.5 178.8 64.4 179 64.3 179.3 64.2 179.6 64.1 179.9 63.9 180.2 63.8 180.5 63.7 180.7 63.6 181 63.5 181.6 63.3 181.9 63.2 182.4 62.9 182.7 62.8 183.3 62.6 183.6 62.5 184.1 62.3 184.4 62.2 184.7 62.1 185 61.9 185.3 61.8 185.6 61.7 185.8 61.6 186.1 61.5 186.7 61.3 187 61.2 187.3 61.1 187.5 61 187.8 60.8 188.1 60.7 188.7 60.5 189 60.4 189.2 60.3 189.5 60.2 189.8 60.1 190.4 59.9 190.7 59.8 191.2 59.5 191.5 59.4 191.8 59.3 192.1 59.2 192.4 59.1 192.6 59 192.9 58.9 193.2 58.8"/>
    <line class="st8" x1="38.4" y1="86.9" x2="116.3" y2="86.9"/>
    <line class="st8" x1="118.9" y1="86.9" x2="196.8" y2="86.9"/>
    <line class="st8" x1="38.4" y1="86.9" x2="38.4" y2="43.2"/>
    <line class="st8" x1="196.8" y1="86.9" x2="196.8" y2="43.2"/>
    <line class="st9" x1="196.8" y1="85" x2="198.9" y2="85"/>
    <line class="st9" x1="196.8" y1="64.8" x2="198.9" y2="64.8"/>
    <line class="st9" x1="196.8" y1="44.7" x2="198.9" y2="44.7"/>
    <line class="st13" x1="118.9" y1="85.1" x2="196.8" y2="85.1"/>
  </g>
  <g>
    <text class="st3" transform="translate(30.8 87)"><tspan x="0" y="0">1</tspan></text>
    <text class="st3" transform="translate(26.8 76.5)"><tspan class="st19" x="0" y="0">1</tspan><tspan class="st17" x="4" y="0">0</tspan></text>
    <text class="st5" transform="translate(22.6 64.8)"><tspan x="0" y="0">100</tspan></text>
    <text class="st5" transform="translate(18.6 53)"><tspan x="0" y="0">1000</tspan></text>
  </g>
  <text class="st2" transform="translate(50.3 38.9)"><tspan x="0" y="0">no parasitism</tspan></text>
  <text class="st2" transform="translate(137.1 38.9)"><tspan x="0" y="0">parasitism</tspan></text>
  <text class="st0" transform="translate(71.7 26.3)"><tspan x="0" y="0">no aphid dispersal</tspan></text>
  <g>
    <line class="st13" x1="210.7" y1="85" x2="288.6" y2="85"/>
    <polyline class="st11" points="214.2 67.3 214.5 60.5 214.8 57.7 215.1 56.3 215.4 55.7 215.7 55.5 215.9 55.7 216.2 56.1 216.5 56.6 216.8 57.2 217.1 57.3 217.3 56.3 217.6 54.9 217.9 53.4 218.2 52.4 218.5 51.8 218.8 51.6 219 51.7 219.3 52 219.6 52.5 219.9 52.9 220.2 53.1 220.5 53 220.7 52.7 221 52.3 221.3 51.8 221.6 51.5 221.9 51.4 222.2 51.5 222.4 51.8 222.7 52.1 223 52.4 223.3 52.7 223.6 52.8 223.9 52.8 224.1 52.7 224.4 52.6 224.7 52.5 225 52.5 225.3 52.5 225.6 52.6 225.8 52.8 226.1 53 226.4 53.1 226.7 53.3 227 53.4 227.3 53.4 227.5 53.4 227.8 53.4 228.1 53.4 228.4 53.4 228.7 53.5 229 53.6 229.2 53.7 229.5 53.9 229.8 54 230.1 54.1 230.4 54.2 230.7 54.3 230.9 54.3 231.2 54.4 231.5 54.4 231.8 54.5 232.1 54.6 232.4 54.7 232.6 54.8 232.9 54.9 233.2 55 233.5 55.1 233.8 55.2 234.1 55.2 234.3 55.3 234.6 55.4 234.9 55.4 235.2 55.5 235.5 55.6 235.8 55.7 236 55.8 236.3 55.9 236.6 55.9 236.9 56 237.2 56.1 237.5 56.2 237.7 56.2 238 56.3 238.6 56.4 238.9 56.5 239.4 56.6 239.7 56.6 240 56.7 240.3 56.7 240.6 56.8 240.9 56.8 241.1 56.8 241.4 56.9 241.7 56.9 242 56.9 242.3 56.9 242.6 56.9 242.8 56.9 243.1 57 243.4 57 243.7 57 244 57 244.3 56.9 244.5 56.9 244.8 56.9 245.1 56.9 245.7 56.9 246 56.9 246.2 56.8 246.5 56.8 246.8 56.8 247.1 56.8 247.4 56.8 247.7 56.7 247.9 56.7 248.2 56.7 248.5 56.7 248.8 56.6 249.1 56.6 249.4 56.6 249.6 56.6 249.9 56.5 250.2 56.5 250.8 56.5 251.1 56.5 251.3 56.4 251.6 56.4 251.9 56.4 252.2 56.4 252.5 56.4 252.7 56.3 253.3 56.3 253.6 56.3 253.9 56.3 254.2 56.3 254.4 56.2 254.7 56.2 255.3 56.2 255.6 56.2 256.1 56.2 256.4 56.2 256.7 56.1 257 56.1 257.3 56.1 257.8 56.1 258.1 56.1 258.4 56.1 258.7 56.1 259 56.1 259.3 56.1 259.5 56.1 259.8 56.1 260.4 56.1 261 56.1 261.2 56.1 261.5 56.1 262.1 56.1 262.4 56.1 262.9 56.1 263.2 56.1 263.5 56.1 263.8 56.1 264.1 56.1 264.4 56.1 264.6 56.1 264.9 56.1 265.8 56.2 266.1 56.2 266.6 56.2 266.9 56.2 267.5 56.2 267.8 56.2 268 56.2 268.3 56.3 268.6 56.3 268.9 56.3 269.2 56.3 269.5 56.3 270 56.3 270.3 56.3 270.9 56.3 271.2 56.4 271.4 56.4 271.7 56.4 272 56.4 272.6 56.4 272.9 56.4 273.4 56.4 273.7 56.4 274.3 56.4 274.6 56.4 274.8 56.4 275.1 56.4 275.4 56.4 275.7 56.4 276.5 56.4 277.1 56.4 277.4 56.4 278 56.4 278.2 56.4 278.5 56.4 278.8 56.4 279.1 56.4 279.4 56.4 279.7 56.4 279.9 56.4 280.5 56.4 280.8 56.4 281.1 56.4 281.4 56.4 281.6 56.3 281.9 56.3 282.2 56.3 282.5 56.3 283.1 56.3 283.3 56.3 283.6 56.3 283.9 56.3 284.2 56.3 284.5 56.3 284.7 56.3 285 56.2"/>
    <polyline class="st12" points="214.2 67.3 214.5 59.7 214.8 56.7 215.1 55.1 215.4 54.4 215.7 54.1 215.9 54.1 216.2 54.3 216.5 54.6 216.8 55.1 217.1 55 217.3 54 217.6 52.4 217.9 50.8 218.2 49.6 218.5 48.9 218.8 48.5 219 48.4 219.3 48.5 219.6 48.8 219.9 49 220.2 49.1 220.5 48.9 220.7 48.5 221 47.9 221.3 47.4 221.6 47.1 221.9 46.8 222.2 46.8 222.4 46.9 222.7 47 223 47.2 223.3 47.3 223.6 47.4 223.9 47.3 224.1 47.1 224.4 47 224.7 46.8 225 46.7 225.3 46.7 225.6 46.7 225.8 46.8 226.1 46.8 226.4 46.9 226.7 46.9 227 46.9 227.3 46.8 227.5 46.7 227.8 46.6 228.1 46.6 228.4 46.5 228.7 46.5 229 46.5 229.2 46.5 229.5 46.5 229.8 46.5 230.1 46.5 230.4 46.5 230.7 46.5 230.9 46.4 231.2 46.4 231.5 46.3 231.8 46.3 232.1 46.3 232.4 46.3 232.6 46.3 232.9 46.3 233.2 46.3 233.5 46.3 233.8 46.3 234.3 46.2 234.6 46.2 234.9 46.2 235.2 46.1 235.5 46.1 235.8 46.1 236 46.1 236.3 46.1 236.6 46.1 236.9 46.1 237.2 46.1 237.7 46 238 46 238.3 46 238.6 46 238.9 46 239.4 46 239.7 46 240.3 46 240.6 45.9 241.1 45.9 241.4 45.9 241.7 45.9 242 45.9 242.3 45.9 242.6 45.9 242.8 45.9 243.1 45.9 243.4 45.9 243.7 45.9 244 45.9 244.3 45.9 244.5 45.9 244.8 45.9 245.1 45.9 245.4 45.9 245.7 45.9 246 45.9 246.2 45.9 246.5 45.9 246.8 45.9 247.1 45.9 247.4 45.9 247.7 45.9 248.2 45.9 248.5 45.9 248.8 45.9 249.1 45.9 249.4 45.9 249.9 45.9 250.2 45.9 250.5 45.9 250.8 45.9 251.1 45.9 251.3 45.9 251.6 45.9 251.9 45.9 252.2 45.9 252.5 45.9 252.7 45.9 253.3 45.9 253.6 45.9 253.9 45.9 254.4 45.9 254.7 46 255.3 46 255.6 46 256.1 46 256.4 46 257 46 257.3 46 257.6 46 257.8 46 258.1 46 258.4 46 258.7 46 259 46 259.3 46 259.8 46 260.1 46 260.4 46 260.7 46 261.5 46 261.8 46 264.4 46 264.6 46 265.5 46 265.8 46 266.3 46 266.6 46 266.9 46 267.2 46 267.5 46 267.8 46 268 46 268.3 46 268.6 46 268.9 46 269.2 46 269.5 46 270 46 270.3 46 270.9 46 271.2 46 271.4 46 271.7 46 272 46 272.3 46 272.6 46 272.9 46 273.1 46 273.4 46 273.7 46 274 45.9 274.3 45.9 274.6 45.9 274.8 45.9 275.1 45.9 276 45.9 276.3 45.9 279.9 45.9 280.2 45.9 280.8 45.9 281.1 45.9 281.6 45.9 281.9 45.9 282.2 45.9 282.5 46 282.8 46 283.1 46 283.3 46 283.6 46 283.9 46 284.2 46 284.5 46 284.7 46 285 46"/>
    <polyline class="st10" points="296.7 85 297 82.9 297.3 83.5 297.6 85 299.3 85 299.5 83.6 299.8 79.6 300.1 77.6 300.4 78 300.7 80.1 301 81.6 301.2 82.7 301.5 83.4 301.8 83.9 302.1 85 302.4 85 302.7 82 302.9 76.7 303.2 71.9 303.5 69.5 303.8 69.5 304.1 70.8 304.3 72.6 304.6 74.6 304.9 76.6 305.2 79 305.5 80 305.8 77.8 306 73 306.3 68.2 306.6 64.8 306.9 63.2 307.2 63 307.5 63.7 307.7 65 308 66.8 308.3 68.9 308.6 70.6 308.9 71.1 309.2 70.6 309.4 69.9 309.7 69.7 310 70.1 310.3 70.8 310.6 71.7 310.9 72.6 311.1 73.5 311.4 74.3 311.7 75 312 75.5 312.3 75.8 312.6 76 312.8 76.1 313.1 76.3 313.4 76.6 313.7 76.9 314 77.1 314.3 77.4 314.5 77.6 314.8 77.8 315.1 78 315.4 78.1 315.7 78.2 316 78.2 316.2 78.3 316.5 78.4 316.8 78.6 317.1 78.7 317.4 78.9 317.7 79.1 317.9 79.3 318.2 79.4 318.5 79.6 318.8 79.7 319.1 79.8 319.4 79.9 319.6 80 319.9 80.2 320.2 80.3 320.5 80.4 320.8 80.6 321.1 80.7 321.3 80.8 321.6 81 321.9 81.1 322.2 81.2 322.5 81.2 322.8 81.3 323 81.4 323.3 81.5 323.6 81.6 323.9 81.7 324.2 81.7 324.5 81.8 324.7 81.9 325 81.9 325.3 82 325.6 82.1 325.9 82.1 326.2 82.1 326.4 82.2 326.7 82.2 327 82.3 327.3 82.3 327.9 82.4 328.1 82.4 328.4 82.4 328.7 82.4 329 82.4 329.3 82.5 329.6 82.5 329.8 82.5 330.4 82.5 331 82.5 331.3 82.5 331.5 82.5 331.8 82.5 332.1 82.4 332.4 82.4 332.7 82.4 333 82.4 333.2 82.4 333.8 82.3 334.1 82.3 334.4 82.3 334.7 82.2 334.9 82.2 335.2 82.2 335.5 82.1 335.8 82.1 336.4 82 336.6 82 336.9 81.9 337.5 81.8 337.8 81.8 338.3 81.7 338.6 81.6 339.2 81.5 339.5 81.5 340 81.3 340.3 81.3 340.9 81.2 341.2 81.1 341.7 81 342 80.9 342.6 80.8 342.9 80.8 343.1 80.7 343.4 80.7 343.7 80.6 344 80.5 344.3 80.5 344.6 80.5 344.8 80.4 345.1 80.4 345.4 80.3 345.7 80.3 346 80.3 346.3 80.3 346.5 80.2 346.8 80.2 347.1 80.2 347.4 80.2 347.7 80.2 348 80.2 348.2 80.2 348.5 80.2 348.8 80.2 349.1 80.2 349.4 80.2 349.7 80.2 349.9 80.3 350.2 80.3 350.5 80.3 350.8 80.4 351.4 80.4 351.6 80.5 351.9 80.5 352.2 80.5 352.5 80.6 353.1 80.7 353.3 80.7 353.6 80.8 353.9 80.8 354.2 80.8 354.8 80.9 355 81 355.6 81.1 355.9 81.1 356.2 81.2 356.5 81.2 356.7 81.2 357.3 81.3 357.6 81.3 358.2 81.4 358.4 81.5 359 81.5 359.3 81.5 359.6 81.6 359.9 81.6 360.1 81.6 360.4 81.6 361 81.7 361.3 81.7 361.8 81.7 362.1 81.8 362.7 81.8 363 81.8 363.5 81.8 363.8 81.8 364.4 81.8 364.7 81.8 365 81.8 365.2 81.8 365.5 81.8"/>
    <polyline class="st11" points="294.7 67.3 295 60.5 295.3 57.7 295.6 56.3 295.9 55.7 296.1 55.5 296.4 55.7 296.7 56.1 297 56.6 297.3 57.3 297.6 57.4 297.8 56.5 298.1 55.1 298.4 53.6 298.7 52.6 299 51.9 299.3 51.6 299.5 51.6 299.8 51.8 300.1 52.2 300.4 52.6 300.7 52.8 301 52.7 301.2 52.3 301.5 51.8 301.8 51.3 302.1 50.9 302.4 50.7 302.7 50.6 302.9 50.6 303.2 50.7 303.5 50.9 303.8 51 304.1 51.1 304.3 51.1 304.6 51 304.9 50.8 305.2 50.7 305.5 50.5 305.8 50.4 306 50.4 306.3 50.4 306.6 50.5 306.9 50.6 307.2 50.7 307.5 50.8 307.7 50.8 308 50.7 308.3 50.7 308.6 50.7 308.9 50.8 309.2 50.8 309.4 50.9 309.7 51 310 51.1 310.3 51.2 310.6 51.2 310.9 51.2 311.1 51.1 311.4 51 311.7 50.9 312 50.8 312.3 50.7 312.6 50.6 312.8 50.5 313.1 50.5 313.4 50.4 313.7 50.3 314 50.2 314.3 50.1 314.5 49.9 314.8 49.8 315.1 49.6 315.4 49.5 315.7 49.3 316 49.2 316.2 49.1 316.5 49.1 316.8 49 317.1 48.9 317.4 48.8 317.7 48.7 317.9 48.5 318.2 48.4 318.5 48.3 318.8 48.2 319.1 48.2 319.4 48.1 319.6 48 319.9 48 320.2 47.9 320.5 47.9 320.8 47.8 321.1 47.7 321.3 47.7 321.6 47.6 321.9 47.6 322.2 47.5 322.5 47.5 322.8 47.5 323 47.4 323.3 47.4 323.6 47.4 324.2 47.3 324.5 47.3 324.7 47.3 325 47.3 325.3 47.3 325.6 47.2 325.9 47.2 326.2 47.2 326.4 47.2 326.7 47.2 327 47.2 327.3 47.2 327.6 47.2 328.1 47.2 328.4 47.2 328.7 47.2 329 47.2 329.3 47.2 329.6 47.2 329.8 47.3 330.4 47.3 330.7 47.3 331 47.3 331.3 47.3 331.5 47.3 332.1 47.3 332.4 47.3 333 47.4 333.2 47.4 333.5 47.4 333.8 47.4 334.1 47.4 334.7 47.4 334.9 47.5 335.5 47.5 335.8 47.5 336.1 47.5 336.6 47.5 336.9 47.5 337.5 47.6 337.8 47.6 338 47.6 338.3 47.6 338.6 47.6 338.9 47.6 339.2 47.6 339.5 47.6 340 47.7 340.3 47.7 340.9 47.7 341.2 47.7 341.7 47.7 342 47.7 342.6 47.7 342.9 47.7 343.1 47.7 343.4 47.7 343.7 47.7 344 47.7 344.3 47.7 344.6 47.7 344.8 47.7 345.4 47.7 346 47.7 346.3 47.7 346.5 47.7 346.8 47.7 347.1 47.7 347.4 47.7 348 47.7 348.2 47.7 348.5 47.7 348.8 47.7 349.1 47.7 349.7 47.7 349.9 47.6 350.2 47.6 350.5 47.6 350.8 47.6 351.4 47.6 351.6 47.6 351.9 47.6 352.2 47.6 352.5 47.6 352.8 47.5 353.1 47.5 353.3 47.5 353.6 47.5 353.9 47.5 354.2 47.5 354.8 47.5 355 47.5 355.6 47.5 355.9 47.4 356.2 47.4 356.5 47.4 356.7 47.4 357 47.4 357.3 47.4 357.6 47.4 358.2 47.4 358.4 47.4 359.3 47.4 359.6 47.4 360.1 47.4 360.4 47.4 360.7 47.4 362.1 47.4 362.7 47.4 363 47.4 363.5 47.4 363.8 47.4 364.1 47.4 364.4 47.4 364.7 47.4 365.2 47.4 365.5 47.4"/>
    <polyline class="st12" points="294.7 67.3 295 59.7 295.3 56.7 295.6 55.1 295.9 54.4 296.1 54.1 296.4 54.1 296.7 54.3 297 54.7 297.3 55.2 297.6 55.2 297.8 54.4 298.1 53.1 298.4 51.9 298.7 50.9 299 50.4 299.3 50.1 299.5 50 299.8 50.1 300.1 50.3 300.4 50.6 300.7 50.7 301 50.6 301.2 50.4 301.5 50.2 301.8 50.1 302.1 50.1 302.4 50.2 302.7 50.4 302.9 50.6 303.5 51.1 303.8 51.2 304.1 51.4 304.3 51.5 304.6 51.7 304.9 52.1 305.2 52.5 305.5 53 305.8 53.5 306 54 306.3 54.4 306.6 54.9 306.9 55.4 307.2 55.8 307.5 56.2 307.7 56.5 308 56.9 308.3 57.3 308.6 57.7 308.9 58 309.2 58.2 309.4 58.4 309.7 58.6 310 58.7 310.3 58.8 310.6 58.9 310.9 58.9 311.1 58.9 311.4 58.9 311.7 58.9 312 58.8 312.3 58.7 312.6 58.7 312.8 58.6 313.1 58.5 313.4 58.5 313.7 58.4 314 58.4 314.8 58.3 315.1 58.2 315.7 58.2 316 58.1 316.2 58.1 316.5 58.1 316.8 58 317.1 58 317.4 58 317.7 57.9 317.9 57.9 318.2 57.8 318.5 57.8 319.1 57.7 319.4 57.6 319.6 57.6 319.9 57.5 320.2 57.4 320.5 57.4 320.8 57.3 321.1 57.2 321.3 57.1 321.6 57.1 321.9 57 322.5 56.8 322.8 56.8 323 56.7 323.3 56.6 323.6 56.5 323.9 56.4 324.2 56.4 324.5 56.3 324.7 56.2 325 56.1 325.3 56 325.6 55.9 325.9 55.9 326.2 55.8 326.4 55.7 327 55.5 327.3 55.4 327.9 55.3 328.1 55.2 328.4 55.1 328.7 55.1 329 55 329.3 54.9 329.6 54.8 329.8 54.8 330.1 54.7 330.4 54.6 330.7 54.6 331 54.5 331.3 54.5 331.5 54.4 332.1 54.3 332.4 54.2 332.7 54.2 333 54.1 333.2 54.1 333.5 54.1 333.8 54 334.1 54 334.4 53.9 334.7 53.9 334.9 53.9 335.2 53.9 335.5 53.8 335.8 53.8 336.1 53.8 336.4 53.8 336.6 53.8 336.9 53.8 337.2 53.7 337.5 53.7 337.8 53.7 338 53.7 338.3 53.7 338.6 53.7 338.9 53.8 339.2 53.8 339.5 53.8 339.7 53.8 340 53.8 340.3 53.8 340.6 53.9 340.9 53.9 341.2 53.9 341.4 54 341.7 54 342 54 342.3 54.1 342.6 54.1 342.9 54.2 343.1 54.2 343.4 54.3 343.7 54.3 344.3 54.4 344.6 54.5 344.8 54.5 345.1 54.6 345.4 54.6 346 54.7 346.3 54.8 346.8 54.9 347.1 55 347.7 55.1 348 55.1 348.2 55.2 348.8 55.3 349.1 55.3 349.4 55.4 349.7 55.4 349.9 55.4 350.2 55.5 350.5 55.5 350.8 55.5 351.1 55.6 351.4 55.6 351.6 55.6 351.9 55.6 352.2 55.7 352.5 55.7 352.8 55.7 353.1 55.7 353.3 55.7 353.6 55.7 353.9 55.7 354.2 55.7 354.5 55.7 354.8 55.7 355 55.7 355.3 55.7 355.6 55.7 355.9 55.6 356.5 55.6 356.7 55.6 357.3 55.5 357.6 55.5 358.2 55.5 358.4 55.4 358.7 55.4 359 55.4 359.3 55.4 359.6 55.3 359.9 55.3 360.1 55.3 360.4 55.2 361 55.2 361.3 55.1 361.6 55.1 361.8 55.1 362.1 55 362.7 55 363 55 363.3 54.9 363.5 54.9 363.8 54.9 364.1 54.8 364.4 54.8 364.7 54.8 365 54.8 365.2 54.7 365.5 54.7"/>
    <line class="st8" x1="210.7" y1="86.9" x2="288.6" y2="86.9"/>
    <line class="st9" x1="214.2" y1="89.1" x2="214.2" y2="86.9"/>
    <line class="st9" x1="242.6" y1="89.1" x2="242.6" y2="86.9"/>
    <line class="st9" x1="270.9" y1="89.1" x2="270.9" y2="86.9"/>
    <line class="st8" x1="291.2" y1="86.9" x2="369.1" y2="86.9"/>
    <line class="st9" x1="294.7" y1="89.1" x2="294.7" y2="86.9"/>
    <line class="st9" x1="323" y1="89.1" x2="323" y2="86.9"/>
    <line class="st9" x1="351.4" y1="89.1" x2="351.4" y2="86.9"/>
    <line class="st8" x1="210.7" y1="86.9" x2="210.7" y2="43.2"/>
    <line class="st9" x1="208.5" y1="85" x2="210.7" y2="85"/>
    <line class="st9" x1="208.5" y1="73.2" x2="210.7" y2="73.2"/>
    <line class="st9" x1="208.5" y1="61.4" x2="210.7" y2="61.4"/>
    <line class="st9" x1="208.5" y1="49.7" x2="210.7" y2="49.7"/>
    <line class="st8" x1="369.1" y1="86.9" x2="369.1" y2="43.2"/>
    <line class="st9" x1="369.1" y1="85" x2="371.2" y2="85"/>
    <line class="st9" x1="369.1" y1="64.8" x2="371.2" y2="64.8"/>
    <line class="st9" x1="369.1" y1="44.7" x2="371.2" y2="44.7"/>
    <line class="st13" x1="291.2" y1="85" x2="369.1" y2="85"/>
  </g>
  <g>
    <text class="st6" transform="translate(374.3 87.4)"><tspan x="0" y="0">0</tspan></text>
    <text class="st6" transform="translate(374.3 67.2)"><tspan x="0" y="0">20</tspan></text>
    <text class="st6" transform="translate(374.3 47.1)"><tspan x="0" y="0">40</tspan></text>
  </g>
  <text class="st2" transform="translate(222.6 38.9)"><tspan x="0" y="0">no parasitism</tspan></text>
  <text class="st2" transform="translate(309.4 38.9)"><tspan x="0" y="0">parasitism</tspan></text>
  <text class="st0" transform="translate(251.7 26.3)"><tspan x="0" y="0">aphid dispersal</tspan></text>
  <text class="st0" transform="translate(71.7 127.1)"><tspan x="0" y="0">no aphid dispersal</tspan></text>
  <text class="st0" transform="translate(251.7 127.1)"><tspan x="0" y="0">aphid dispersal</tspan></text>
  <text class="st4" transform="translate(162.5 114.5)"><tspan x="0" y="0">experiments</tspan></text>
  <text class="st4" transform="translate(164.8 13.7)"><tspan x="0" y="0">simulations</tspan></text>
  <text class="st15" transform="translate(74.2 53.4)"><tspan x="0" y="0">susceptible</tspan><tspan x="16.8" y="7">aphids</tspan></text>
  <text class="st16" transform="translate(146.3 53.4)"><tspan x="0" y="0">resistant</tspan><tspan x="4" y="7">aphids</tspan></text>
  <text class="st14" transform="translate(320.3 75.8)"><tspan x="0" y="0">parasitoids</tspan></text>
  <g>
    <g>
      <line class="st9" x1="36.2" y1="185.8" x2="38.4" y2="185.8"/>
      <line class="st9" x1="36.2" y1="170" x2="38.4" y2="170"/>
      <line class="st9" x1="36.2" y1="150.5" x2="38.4" y2="150.5"/>
    </g>
    <g>
      <line class="st9" x1="41.9" y1="189.9" x2="41.9" y2="187.7"/>
      <line class="st9" x1="70" y1="189.9" x2="70" y2="187.7"/>
      <line class="st9" x1="98.2" y1="189.9" x2="98.2" y2="187.7"/>
      <line class="st9" x1="122.9" y1="189.9" x2="122.9" y2="187.7"/>
      <line class="st9" x1="151" y1="189.9" x2="151" y2="187.7"/>
      <line class="st9" x1="179.2" y1="189.9" x2="179.2" y2="187.7"/>
    </g>
    <g>
      <line class="st9" x1="196.8" y1="185.8" x2="198.9" y2="185.8"/>
      <line class="st9" x1="196.8" y1="168.5" x2="198.9" y2="168.5"/>
      <line class="st9" x1="196.8" y1="151.3" x2="198.9" y2="151.3"/>
    </g>
    <polygon class="st18" points="41.9 185.8 68.3 185.8 69.5 185.3 69.8 185.8 72.6 185.8 72.8 185.3 73.7 185.3 74 184.9 74.3 185.8 74.5 185.8 74.8 185.3 75.1 185.8 95.9 185.8 41.9 185.8"/>
    <line class="st13" x1="38.4" y1="185.8" x2="115.7" y2="185.8"/>
    <polyline class="st11" points="41.9 170.9 42.7 181.1 43.9 169.1 44.7 166.2 45.8 164.8 46.7 165.7 47.8 169.9 48.7 168.1 49.8 168.8 50.6 166.7 51.7 174.3 52.9 165.5 53.7 162.1 54.6 168.2 55.7 164.6 56.5 166.6 57.7 173.2 58.5 169.8 59.6 164.4 61.6 171.6 63.6 170.5 65.5 166.2 67.5 167.2 69.5 167.4 71.4 162.9 73.4 170.2 75.4 171.9 77.3 171.9 79.3 170.9 81.3 174.9 83.3 171.3 85.2 171.9 87.2 178.1 89.2 171.2 91.1 169.4 92 177.5 93.1 173 95.1 177.5 95.9 173.7"/>
    <polyline class="st12" points="41.9 170.9 42.7 170.4 43.9 165 44.7 161.4 45.8 157.5 46.7 158.1 47.8 159.3 48.7 156.9 49.8 157 50.6 155.9 51.7 157.9 52.9 155.9 53.7 156.6 54.6 156.8 55.7 159.5 56.5 161.5 57.7 162.5 58.5 160.9 59.6 156.4 61.6 157.6 63.6 158 65.5 155.4 67.5 161.1 69.5 156.2 71.4 158.5 73.4 158.5 75.4 156.8 77.3 158.8 79.3 157 81.3 160.7 83.3 154.4 85.2 155.3 87.2 158 89.2 156.1 91.1 158.2 92 156.7 93.1 155.3 95.1 157.8 95.9 153.8"/>
    <polyline class="st10" points="122.9 185.8 123.8 184.9 124.9 185.8 125.7 183.2 126.8 184.9 127.7 181.4 128.8 185.8 129.7 185.8 130.8 183.2 131.6 181.4 132.8 178 133.9 165.1 134.7 181.4 135.6 181.4 136.7 183.2 138.7 183.2 139.5 182.3 140.6 181.4 142.6 184 146.5 184 146.5 185.8"/>
    <line class="st13" x1="119.4" y1="185.8" x2="196.8" y2="185.8"/>
    <polyline class="st11" points="122.9 170.9 123.8 181.1 124.9 172.4 125.7 169.1 126.8 170.7 127.7 176.4 128.8 172.3 129.7 165.7 130.8 164.8 131.6 164.2 132.8 164.2 133.9 159.3 134.7 159.9 135.6 162.1 136.7 158.6 137.5 158 138.7 160.4 139.5 161.6 140.6 160.3 142.6 160.4 144.6 156.9 146.5 157.6"/>
    <polyline class="st12" points="122.9 170.9 123.8 171.9 124.9 165.7 125.7 163.6 126.8 167 127.7 171.2 128.8 170.9 129.7 168.6 130.8 169 131.6 173 132.8 174.9 133.9 171.9 134.7 182.8 135.6 181.1 136.7 178.1 137.5 179.9 138.7 182.8 139.5 185.8 146.5 185.8"/>
    <line class="st8" x1="38.4" y1="187.7" x2="115.7" y2="187.7"/>
    <line class="st8" x1="119.4" y1="187.7" x2="196.8" y2="187.7"/>
    <line class="st8" x1="38.4" y1="187.7" x2="38.4" y2="144"/>
    <line class="st8" x1="196.8" y1="187.7" x2="196.8" y2="144"/>
  </g>
  <text class="st1" transform="translate(23 15.1)"><tspan x="0" y="0">a</tspan></text>
  <text class="st1" transform="translate(23 115.9)"><tspan x="0" y="0">b</tspan></text>
</svg>