<?xml version="1.0" encoding="utf-8"?>
<!-- Generator: Adobe Illustrator 26.5.0, SVG Export Plug-In . SVG Version: 6.00 Build 0)  -->
<svg version="1.1" id="Layer_1" xmlns="http://www.w3.org/2000/svg" xmlns:xlink="http://www.w3.org/1999/xlink" x="0px" y="0px"
	 viewBox="0 0 212.6 114.1" style="enable-background:new 0 0 212.6 114.1;" xml:space="preserve">
<style type="text/css">
	.st0{fill:none;stroke:#B3B4B4;stroke-width:1.067;stroke-linejoin:round;}
	.st1{fill:none;stroke:#B3B4B4;stroke-width:1.067;stroke-linejoin:round;stroke-dasharray:2.7894,2.7894;}
	.st2{fill:none;stroke:#000000;stroke-width:1.067;stroke-linecap:square;stroke-linejoin:round;stroke-miterlimit:10;}
	.st3{fill:none;stroke:#FDB82A;stroke-width:1.6005;stroke-linejoin:round;stroke-miterlimit:10;}
	.st4{fill:none;stroke:#E97257;stroke-width:1.6005;stroke-linejoin:round;stroke-miterlimit:10;}
	.st5{fill:none;stroke:#662D91;stroke-width:1.6005;stroke-linejoin:round;stroke-miterlimit:10;}
	.st6{fill:none;stroke:#662D91;stroke-linecap:round;stroke-linejoin:round;stroke-miterlimit:10;}
	.st7{fill:none;stroke:#B3B4B4;stroke-width:1.067;stroke-linejoin:round;stroke-miterlimit:10;stroke-dasharray:3,3;}
	.st8{fill:none;}
	.st9{fill:#E97257;}
	.st10{font-family:'Helvetica';}
	.st11{font-size:9px;}
	.st12{fill:#F4C142;}
	.st13{fill:#662D91;}
	.st14{fill:#B3B4B4;}
	.st15{font-family:'Helvetica-LightOblique';}
	.st16{font-size:8px;}
	.st17{font-size:12px;}
</style>
<g>
	<g>
		<g>
			<line class="st0" x1="83.1" y1="93.2" x2="83.1" y2="91.7"/>
			<line class="st1" x1="83.1" y1="88.9" x2="83.1" y2="56.8"/>
			<line class="st0" x1="83.1" y1="55.4" x2="83.1" y2="53.9"/>
		</g>
	</g>
	<line class="st2" x1="65.4" y1="89.6" x2="206.7" y2="89.6"/>
	<polyline class="st3" points="65.4,66.9 83.5,66.9 83.8,66.9 86,66.9 86.3,66.9 87,66.9 87.4,66.9 87.7,66.9 88.4,66.9 88.8,66.9 
		89.2,66.9 89.5,66.9 89.9,66.9 90.2,67 90.6,67 90.9,67 91.3,67 91.6,67 92,67.1 92.3,67.1 92.7,67.2 93,67.2 93.4,67.3 93.8,67.4 
		94.1,67.5 94.5,67.6 94.8,67.8 95.2,67.9 95.5,68.1 95.9,68.3 96.2,68.5 96.6,68.8 96.9,69 97.3,69.3 97.7,69.5 98,69.7 98.4,70 
		98.7,70.2 99.1,70.4 99.4,70.5 99.8,70.7 100.1,70.8 100.5,70.9 100.8,71 101.2,71.1 101.5,71.2 101.9,71.2 102.3,71.3 102.6,71.3 
		103,71.3 103.3,71.3 103.7,71.3 104,71.3 104.4,71.3 104.7,71.3 105.1,71.3 105.4,71.3 105.8,71.3 106.1,71.3 106.5,71.3 
		106.9,71.3 107.6,71.2 107.9,71.2 108.6,71.2 109,71.2 109.7,71.2 110,71.1 110.4,71.1 110.7,71.1 111.5,71.1 111.8,71 112.5,71 
		112.9,71 113.2,71 113.6,71 114.3,70.9 114.6,70.9 115.4,70.9 115.7,70.9 116.4,70.8 116.8,70.8 117.1,70.8 117.5,70.8 117.8,70.8 
		118.2,70.8 118.5,70.8 118.9,70.7 119.2,70.7 119.6,70.7 120,70.7 120.3,70.7 120.7,70.7 121,70.7 121.4,70.7 121.7,70.6 
		122.1,70.6 122.4,70.6 123.1,70.6 123.5,70.6 123.9,70.6 124.2,70.6 124.9,70.5 125.3,70.5 126,70.5 126.3,70.5 127,70.5 
		127.4,70.5 127.7,70.4 128.1,70.4 128.5,70.4 128.8,70.4 129.2,70.4 129.5,70.4 129.9,70.4 130.2,70.4 130.6,70.4 130.9,70.4 
		131.3,70.3 131.6,70.3 132,70.3 132.3,70.3 132.7,70.3 133.1,70.3 133.4,70.3 133.8,70.3 134.1,70.3 134.5,70.3 134.8,70.3 
		135.5,70.2 135.9,70.2 136.2,70.2 136.6,70.2 136.9,70.2 137.7,70.2 138,70.2 138.4,70.2 138.7,70.2 139.4,70.1 139.8,70.1 
		140.5,70.1 140.8,70.1 141.2,70.1 141.5,70.1 142.3,70.1 142.6,70.1 143.3,70.1 143.7,70.1 144.4,70 144.7,70 145.1,70 145.4,70 
		146.2,70 146.5,70 146.9,70 147.2,70 147.6,70 147.9,70 148.3,70 148.6,70 149,69.9 149.3,69.9 149.7,69.9 150,69.9 150.4,69.9 
		150.8,69.9 151.1,69.9 151.5,69.9 151.8,69.9 152.2,69.9 152.5,69.9 152.9,69.9 153.2,69.9 153.6,69.9 153.9,69.9 154.3,69.9 
		155,69.8 155.4,69.8 155.7,69.8 156.1,69.8 156.4,69.8 156.8,69.8 157.1,69.8 157.5,69.8 157.8,69.8 158.2,69.8 158.5,69.8 
		158.9,69.8 159.3,69.8 159.6,69.8 160,69.8 160.3,69.8 160.7,69.7 161,69.7 161.4,69.7 161.7,69.7 162.1,69.7 162.4,69.7 
		162.8,69.7 163.1,69.7 163.5,69.7 163.9,69.7 164.2,69.7 164.6,69.7 164.9,69.7 165.3,69.7 165.6,69.7 166,69.7 166.3,69.7 
		166.7,69.7 167,69.6 167.4,69.6 167.7,69.6 168.1,69.6 168.5,69.6 168.8,69.6 169.2,69.6 169.5,69.6 169.9,69.6 170.2,69.6 
		170.6,69.6 171.3,69.6 171.6,69.6 172,69.6 172.4,69.6 172.7,69.6 173.1,69.6 173.4,69.6 174.1,69.5 174.5,69.5 174.8,69.5 
		175.2,69.5 175.5,69.5 175.9,69.5 176.2,69.5 176.6,69.5 177,69.5 177.3,69.5 177.7,69.5 178,69.5 178.4,69.5 179.1,69.5 
		179.4,69.5 179.8,69.5 180.1,69.5 180.5,69.5 180.9,69.5 181.2,69.5 181.9,69.4 182.3,69.4 183,69.4 183.3,69.4 183.7,69.4 
		184,69.4 184.4,69.4 184.7,69.4 185.1,69.4 185.8,69.4 186.2,69.4 186.9,69.4 187.2,69.4 187.6,69.4 187.9,69.4 188.6,69.4 
		189,69.4 189.7,69.3 190.1,69.3 190.8,69.3 191.1,69.3 191.5,69.3 191.8,69.3 192.5,69.3 192.9,69.3 193.6,69.3 193.9,69.3 
		194.3,69.3 194.7,69.3 195.4,69.3 195.7,69.3 196.4,69.3 196.8,69.3 197.5,69.3 197.8,69.3 198.2,69.3 198.5,69.2 199.3,69.2 
		199.6,69.2 200.3,69.2 200.7,69.2 201.4,69.2 201.7,69.2 202.1,69.2 202.4,69.2 203.2,69.2 203.5,69.2 204.2,69.2 204.6,69.2 
		204.9,69.2 205.3,69.2 206,69.2 206.3,69.2 206.7,69.2 	"/>
	<polyline class="st4" points="83.1,89.6 83.5,89.6 83.8,89.6 84.6,89.6 84.9,89.6 85.3,89.6 85.6,89.6 86.3,89.6 86.7,89.5 
		87,89.5 87.4,89.5 87.7,89.5 88.1,89.4 88.4,89.4 88.8,89.3 89.2,89.3 89.5,89.2 89.9,89.1 90.2,89 90.6,88.8 90.9,88.6 91.3,88.4 
		91.6,88.1 92,87.7 92.3,87.2 92.7,86.7 93,86.1 93.4,85.3 93.8,84.4 94.1,83.3 94.5,82.1 94.8,80.7 95.2,79.2 95.5,77.6 95.9,75.8 
		96.2,74 96.6,72.2 96.9,70.5 97.3,68.8 97.7,67.2 98,65.8 98.4,64.6 98.7,63.4 99.1,62.5 99.4,61.7 99.8,61 100.1,60.4 100.5,60 
		100.8,59.6 101.2,59.2 101.5,58.9 101.9,58.7 102.3,58.5 102.6,58.4 103,58.2 103.3,58.1 103.7,58 104,57.9 104.4,57.8 104.7,57.8 
		105.1,57.7 105.4,57.7 105.8,57.6 106.1,57.6 106.5,57.6 106.9,57.5 107.6,57.5 107.9,57.4 108.3,57.4 108.6,57.4 109,57.4 
		109.3,57.3 109.7,57.3 110,57.3 110.4,57.3 110.7,57.2 111.1,57.2 111.5,57.2 111.8,57.2 112.2,57.2 112.5,57.1 112.9,57.1 
		113.2,57.1 113.6,57.1 113.9,57.1 114.3,57 114.6,57 115,57 115.4,57 115.7,57 116.1,57 116.4,56.9 116.8,56.9 117.1,56.9 
		117.5,56.9 117.8,56.9 118.2,56.8 118.5,56.8 118.9,56.8 119.2,56.8 119.6,56.8 120,56.8 120.3,56.7 120.7,56.7 121,56.7 
		121.4,56.7 121.7,56.7 122.1,56.7 122.4,56.6 122.8,56.6 123.1,56.6 123.5,56.6 123.9,56.6 124.2,56.6 124.6,56.5 124.9,56.5 
		125.3,56.5 126,56.5 126.3,56.5 127,56.4 127.4,56.4 127.7,56.4 128.1,56.4 128.8,56.3 129.2,56.3 129.5,56.3 129.9,56.3 
		130.2,56.3 130.9,56.3 131.3,56.2 131.6,56.2 132,56.2 132.7,56.2 133.1,56.2 133.8,56.1 134.1,56.1 134.5,56.1 134.8,56.1 
		135.5,56.1 135.9,56.1 136.2,56 136.6,56 136.9,56 137.3,56 137.7,56 138,56 138.4,56 138.7,56 139.1,55.9 139.4,55.9 139.8,55.9 
		140.1,55.9 140.5,55.9 140.8,55.9 141.2,55.9 141.5,55.8 141.9,55.8 142.3,55.8 142.6,55.8 143.3,55.8 143.7,55.8 144.4,55.7 
		144.7,55.7 145.1,55.7 145.4,55.7 146.2,55.7 146.5,55.7 147.2,55.7 147.6,55.6 148.3,55.6 148.6,55.6 149,55.6 149.3,55.6 
		149.7,55.6 150,55.6 150.4,55.6 151.1,55.5 151.5,55.5 151.8,55.5 152.2,55.5 152.9,55.5 153.2,55.5 153.6,55.5 153.9,55.4 
		154.3,55.4 154.7,55.4 155,55.4 155.4,55.4 155.7,55.4 156.1,55.4 156.4,55.4 156.8,55.4 157.1,55.4 157.8,55.3 158.2,55.3 
		158.5,55.3 158.9,55.3 159.3,55.3 159.6,55.3 160,55.3 160.3,55.3 160.7,55.3 161,55.2 161.7,55.2 162.1,55.2 162.4,55.2 
		162.8,55.2 163.1,55.2 163.5,55.2 163.9,55.2 164.2,55.2 164.6,55.2 164.9,55.1 165.3,55.1 165.6,55.1 166,55.1 166.3,55.1 
		166.7,55.1 167,55.1 167.4,55.1 167.7,55.1 168.5,55.1 168.8,55.1 169.5,55 169.9,55 170.2,55 170.6,55 171.3,55 171.6,55 
		172.4,55 172.7,55 173.1,55 173.4,54.9 173.8,54.9 174.1,54.9 174.5,54.9 175.2,54.9 175.5,54.9 176.2,54.9 176.6,54.9 177,54.9 
		177.3,54.9 178,54.9 178.4,54.8 178.7,54.8 179.1,54.8 179.4,54.8 180.1,54.8 180.5,54.8 180.9,54.8 181.2,54.8 181.6,54.8 
		181.9,54.8 182.3,54.8 182.6,54.8 183,54.8 183.3,54.8 183.7,54.7 184,54.7 184.4,54.7 184.7,54.7 185.1,54.7 185.5,54.7 
		185.8,54.7 186.2,54.7 186.5,54.7 186.9,54.7 187.2,54.7 187.6,54.7 187.9,54.7 188.3,54.7 188.6,54.7 189,54.7 189.3,54.7 
		189.7,54.6 190.1,54.6 190.4,54.6 190.8,54.6 191.1,54.6 191.5,54.6 191.8,54.6 192.2,54.6 192.5,54.6 192.9,54.6 193.6,54.6 
		193.9,54.6 194.3,54.6 194.7,54.6 195.4,54.6 195.7,54.5 196.4,54.5 196.8,54.5 197.1,54.5 197.5,54.5 197.8,54.5 198.2,54.5 
		198.5,54.5 199.3,54.5 199.6,54.5 200.3,54.5 200.7,54.5 201,54.5 201.4,54.5 201.7,54.5 202.1,54.5 202.4,54.5 203.2,54.5 
		203.5,54.4 204.2,54.4 204.6,54.4 204.9,54.4 205.3,54.4 206,54.4 206.3,54.4 206.7,54.4 	"/>
	<polyline class="st5" points="65.4,54.8 83.1,54.8 83.5,54.9 83.8,54.9 84.6,54.9 84.9,54.9 85.3,54.9 85.6,54.9 86.3,54.9 
		86.7,54.9 87,54.9 87.4,55 87.7,55 88.1,55 88.4,55.1 88.8,55.1 89.2,55.2 89.5,55.3 89.9,55.4 90.2,55.5 90.6,55.7 90.9,55.9 
		91.3,56.1 91.6,56.5 92,56.8 92.3,57.3 92.7,57.9 93,58.5 93.4,59.3 93.8,60.3 94.1,61.4 94.5,62.7 94.8,64.1 95.2,65.7 95.5,67.4 
		95.9,69.3 96.2,71.2 96.6,73.2 96.9,75.1 97.3,76.9 97.7,78.6 98,80.2 98.4,81.6 98.7,82.9 99.1,83.9 99.4,84.9 99.8,85.7 
		100.1,86.3 100.5,86.9 100.8,87.4 101.2,87.8 101.5,88.1 101.9,88.3 102.3,88.6 102.6,88.8 103,88.9 103.3,89 103.7,89.1 104,89.2 
		104.4,89.3 104.7,89.3 105.1,89.4 105.4,89.4 105.8,89.5 106.1,89.5 106.5,89.5 106.9,89.5 107.2,89.5 107.6,89.6 107.9,89.6 
		108.6,89.6 109,89.6 109.7,89.6 110,89.6 110.4,89.6 110.7,89.6 111.1,89.6 111.5,89.6 	"/>
	<g>
		<line class="st6" x1="109" y1="92.1" x2="113.9" y2="87.1"/>
		<line class="st6" x1="109" y1="87.1" x2="113.9" y2="92.1"/>
	</g>
	<line class="st2" x1="65.4" y1="89.6" x2="65.4" y2="53.9"/>
</g>
<g>
	<line class="st7" x1="83.1" y1="45" x2="83.1" y2="5.8"/>
	<line class="st2" x1="65.4" y1="41.5" x2="206.7" y2="41.5"/>
	<polyline class="st5" points="65.4,39.3 90.2,39.3 90.6,39.3 91.6,39.3 92,39.3 92.3,39.3 93,39.3 93.4,39.3 93.8,39.3 94.1,39.3 
		94.5,39.3 94.8,39.3 95.2,39.3 95.5,39.3 95.9,39.3 96.2,39.3 96.6,39.2 96.9,39.2 97.3,39.2 98,39.2 98.4,39.1 99.1,39.1 
		99.4,39.1 99.8,39 100.1,39 100.8,39 101.2,38.9 101.5,38.9 101.9,38.9 102.3,38.8 102.6,38.8 103,38.8 103.7,38.7 104,38.7 
		104.4,38.7 104.7,38.6 105.1,38.6 105.4,38.6 105.8,38.5 106.1,38.5 106.5,38.5 106.9,38.4 107.6,38.3 107.9,38.3 108.3,38.3 
		108.6,38.2 109,38.2 109.7,38.1 110,38.1 110.4,38 110.7,38 111.5,37.9 	"/>
	<polyline class="st3" points="65.4,15.2 86.7,15.2 87,15.2 90.6,15.2 90.9,15.2 91.6,15.2 92,15.2 92.3,15.2 92.7,15.2 93,15.2 
		93.4,15.2 93.8,15.1 94.1,15.1 94.5,15.1 94.8,15.1 95.2,15.1 95.5,15.1 95.9,15.1 96.2,15.1 96.6,15.1 96.9,15 97.3,15 97.7,15 
		98,15 98.4,14.9 99.1,14.9 99.4,14.9 99.8,14.8 100.1,14.8 100.5,14.8 100.8,14.8 101.2,14.7 101.5,14.7 101.9,14.7 102.3,14.7 
		102.6,14.6 103,14.6 103.7,14.6 104,14.5 104.7,14.5 105.1,14.5 105.8,14.4 106.1,14.4 106.5,14.4 106.9,14.4 107.2,14.3 
		107.6,14.3 107.9,14.3 108.3,14.3 108.6,14.3 109,14.2 109.3,14.2 109.7,14.2 110,14.2 110.4,14.2 110.7,14.1 111.5,14.1 
		111.8,14.1 112.5,14 112.9,14 113.2,14 113.6,14 114.3,13.9 114.6,13.9 115,13.9 115.4,13.9 115.7,13.9 116.4,13.8 116.8,13.8 
		117.1,13.8 117.5,13.8 118.2,13.8 118.5,13.7 119.2,13.7 119.6,13.7 120.3,13.7 120.7,13.7 121,13.6 121.4,13.6 121.7,13.6 
		122.1,13.6 122.4,13.6 122.8,13.6 123.1,13.5 123.5,13.5 123.9,13.5 124.2,13.5 124.6,13.5 124.9,13.5 125.3,13.5 126,13.4 
		126.3,13.4 127,13.4 127.4,13.4 127.7,13.4 128.1,13.4 128.8,13.3 129.2,13.3 129.5,13.3 129.9,13.3 130.2,13.3 130.6,13.3 
		130.9,13.3 131.3,13.3 131.6,13.3 132,13.3 132.7,13.2 133.1,13.2 133.4,13.2 133.8,13.2 134.1,13.2 134.5,13.2 134.8,13.2 
		135.2,13.2 135.5,13.2 135.9,13.2 136.2,13.1 136.6,13.1 136.9,13.1 137.7,13.1 138,13.1 138.4,13.1 138.7,13.1 139.4,13.1 
		139.8,13.1 140.5,13 140.8,13 141.2,13 141.5,13 142.3,13 142.6,13 143,13 143.3,13 143.7,13 144.4,13 144.7,13 145.1,13 
		145.4,12.9 145.8,12.9 146.2,12.9 146.5,12.9 146.9,12.9 147.2,12.9 147.6,12.9 147.9,12.9 148.3,12.9 148.6,12.9 149,12.9 
		149.3,12.9 149.7,12.9 150,12.9 150.4,12.9 150.8,12.9 151.1,12.9 151.5,12.8 151.8,12.8 152.2,12.8 152.5,12.8 152.9,12.8 
		153.2,12.8 153.9,12.8 154.3,12.8 155,12.8 155.4,12.8 155.7,12.8 156.1,12.8 156.8,12.8 157.1,12.8 157.8,12.8 158.2,12.8 
		158.9,12.8 159.3,12.8 159.6,12.8 160,12.8 160.7,12.7 161,12.7 161.7,12.7 162.1,12.7 162.4,12.7 162.8,12.7 163.1,12.7 
		163.5,12.7 163.9,12.7 164.2,12.7 164.6,12.7 164.9,12.7 165.3,12.7 165.6,12.7 166,12.7 166.3,12.7 166.7,12.7 167,12.7 
		167.4,12.7 167.7,12.7 168.1,12.7 168.5,12.7 168.8,12.7 169.2,12.7 169.5,12.7 169.9,12.7 170.2,12.7 170.6,12.7 170.9,12.7 
		171.6,12.7 172,12.7 172.4,12.7 172.7,12.7 173.4,12.7 173.8,12.7 174.1,12.7 174.5,12.7 175.2,12.7 175.5,12.7 176.6,12.7 
		177,12.6 178,12.6 178.4,12.6 179.4,12.6 179.8,12.6 181.6,12.6 181.9,12.6 184.4,12.6 184.7,12.6 192.5,12.6 192.9,12.6 
		195.7,12.6 196.1,12.6 198.2,12.6 198.5,12.6 200,12.6 200.3,12.6 201.7,12.6 202.1,12.7 203.2,12.7 203.5,12.7 204.6,12.7 
		204.9,12.7 206,12.7 206.3,12.7 206.7,12.7 	"/>
	<polyline class="st4" points="83.1,19.2 83.5,19.1 83.8,19.1 84.2,19 84.6,19 84.9,19 85.3,18.9 85.6,18.9 86,18.9 86.3,18.8 
		86.7,18.8 87.4,18.7 87.7,18.7 88.1,18.7 88.4,18.6 88.8,18.6 89.2,18.5 89.5,18.5 89.9,18.5 90.2,18.5 90.6,18.4 91.3,18.4 
		91.6,18.3 92,18.3 92.3,18.3 92.7,18.2 93,18.2 93.4,18.2 93.8,18.2 94.1,18.2 94.5,18.1 94.8,18.1 95.2,18.1 95.5,18.1 95.9,18.1 
		96.2,18.1 96.9,18.1 97.3,18.1 97.7,18.1 98,18.1 98.4,18.2 98.7,18.2 99.1,18.2 99.4,18.2 99.8,18.3 100.1,18.3 100.5,18.3 
		100.8,18.3 101.2,18.4 101.9,18.4 102.3,18.5 102.6,18.5 103,18.5 103.7,18.6 104,18.6 104.7,18.7 105.1,18.7 105.4,18.8 
		105.8,18.8 106.1,18.8 106.5,18.9 106.9,18.9 107.6,19 107.9,19 108.6,19.1 109,19.1 109.7,19.2 110,19.2 110.4,19.2 110.7,19.2 
		111.5,19.3 111.8,19.3 112.5,19.4 112.9,19.4 113.2,19.5 113.6,19.5 114.3,19.6 114.6,19.6 115,19.6 115.4,19.7 115.7,19.7 
		116.4,19.7 116.8,19.8 117.1,19.8 117.5,19.8 117.8,19.9 118.2,19.9 118.5,19.9 119.2,20 119.6,20 120.3,20.1 120.7,20.1 121,20.1 
		121.4,20.2 121.7,20.2 122.1,20.2 122.4,20.3 122.8,20.3 123.1,20.3 123.5,20.3 123.9,20.4 124.2,20.4 124.6,20.4 124.9,20.5 
		125.3,20.5 125.6,20.5 126,20.6 126.3,20.6 126.7,20.6 127,20.6 127.4,20.7 127.7,20.7 128.1,20.7 128.8,20.8 129.2,20.8 
		129.9,20.9 130.2,20.9 130.6,20.9 130.9,21 131.3,21 131.6,21 132,21 132.7,21.1 133.1,21.1 133.4,21.2 133.8,21.2 134.1,21.2 
		134.5,21.2 134.8,21.3 135.5,21.3 135.9,21.3 136.2,21.4 136.6,21.4 136.9,21.4 137.7,21.5 138,21.5 138.4,21.5 138.7,21.6 
		139.1,21.6 139.4,21.6 139.8,21.6 140.5,21.7 140.8,21.7 141.2,21.7 141.5,21.8 141.9,21.8 142.3,21.8 142.6,21.8 143,21.9 
		143.3,21.9 143.7,21.9 144,21.9 144.4,22 144.7,22 145.1,22 145.4,22 146.2,22.1 146.5,22.1 146.9,22.2 147.2,22.2 147.6,22.2 
		147.9,22.2 148.3,22.3 148.6,22.3 149,22.3 149.3,22.3 149.7,22.4 150,22.4 150.4,22.4 150.8,22.4 151.1,22.5 151.5,22.5 
		151.8,22.5 152.2,22.5 152.9,22.6 153.2,22.6 153.9,22.6 154.3,22.7 154.7,22.7 155,22.7 155.4,22.7 155.7,22.8 156.1,22.8 
		156.8,22.8 157.1,22.9 157.8,22.9 158.2,22.9 158.9,23 159.3,23 159.6,23 160,23 160.7,23.1 161,23.1 161.7,23.2 162.1,23.2 
		162.4,23.2 162.8,23.2 163.5,23.3 163.9,23.3 164.2,23.3 164.6,23.3 164.9,23.4 165.6,23.4 166,23.4 166.3,23.5 166.7,23.5 
		167,23.5 167.4,23.5 167.7,23.5 168.1,23.6 168.5,23.6 168.8,23.6 169.2,23.6 169.5,23.7 169.9,23.7 170.2,23.7 170.6,23.7 
		170.9,23.7 171.3,23.8 171.6,23.8 172,23.8 172.4,23.8 172.7,23.9 173.1,23.9 173.4,23.9 173.8,23.9 174.1,23.9 174.5,24 174.8,24 
		175.2,24 175.5,24 175.9,24 176.2,24.1 176.6,24.1 177,24.1 177.3,24.1 177.7,24.1 178,24.2 178.4,24.2 179.1,24.2 179.4,24.3 
		180.1,24.3 180.5,24.3 180.9,24.3 181.2,24.4 181.9,24.4 182.3,24.4 182.6,24.4 183,24.5 183.3,24.5 183.7,24.5 184,24.5 
		184.7,24.6 185.1,24.6 185.8,24.6 186.2,24.6 186.9,24.7 187.2,24.7 187.6,24.7 187.9,24.7 188.6,24.8 189,24.8 189.7,24.8 
		190.1,24.8 190.8,24.9 191.1,24.9 191.5,24.9 191.8,24.9 192.5,25 192.9,25 193.2,25 193.6,25 193.9,25.1 194.3,25.1 194.7,25.1 
		195,25.1 195.4,25.1 195.7,25.1 196.1,25.2 196.4,25.2 196.8,25.2 197.1,25.2 197.5,25.2 197.8,25.3 198.2,25.3 198.5,25.3 
		199.3,25.3 199.6,25.3 200.3,25.4 200.7,25.4 201,25.4 201.4,25.4 201.7,25.5 202.1,25.5 202.4,25.5 202.8,25.5 203.2,25.5 
		203.5,25.5 203.9,25.6 204.2,25.6 204.6,25.6 204.9,25.6 205.3,25.6 205.6,25.6 206,25.7 206.3,25.7 206.7,25.7 	"/>
	<g>
		<line class="st6" x1="109" y1="40.4" x2="113.9" y2="35.4"/>
		<line class="st6" x1="109" y1="35.4" x2="113.9" y2="40.4"/>
	</g>
	<line class="st2" x1="65.4" y1="41.5" x2="65.4" y2="5.8"/>
</g>
<rect x="176.3" y="29.7" class="st8" width="32.6" height="6.6"/>
<text transform="matrix(1 0 0 1 179.3982 36.2002)" class="st9 st10 st11">invader</text>
<rect x="130" y="0.7" class="st8" width="78.9" height="6.6"/>
<text transform="matrix(1 0 0 1 130.3682 7.2924)" class="st12 st10 st11">partitioning resident</text>
<rect x="86.2" y="26.6" class="st8" width="73.7" height="6.6"/>
<text transform="matrix(1 0 0 1 86.1999 33.0703)" class="st13 st10 st11">excluding resident</text>
<rect x="56.7" y="99.8" transform="matrix(0.866 -0.5 0.5 0.866 -41.7853 49.4547)" class="st8" width="29.4" height="5.8"/>
<text transform="matrix(0.866 -0.5 0.5 0.866 60.1211 112.4901)" class="st14 st15 st16">invasion</text>
<rect x="52.4" y="67.9" class="st8" width="8.9" height="11.2"/>
<text transform="matrix(1 0 0 1 52.6139 77.8646)" class="st10 st17">N</text>
<rect x="3" y="16.1" class="st8" width="58.3" height="18.7"/>
<text transform="matrix(1 0 0 1 41.276 24.697)"><tspan x="0" y="0" class="st10 st17">trait</tspan><tspan x="-38" y="10" class="st10 st17">investment</tspan></text>
<rect x="122.6" y="97.6" class="st8" width="27" height="10"/>
<text transform="matrix(1 0 0 1 122.7166 106.2326)" class="st10 st17">Time</text>
</svg>
