<?xml version="1.0" encoding="utf-8"?>
<!-- Generator: Adobe Illustrator 21.0.2, SVG Export Plug-In . SVG Version: 6.00 Build 0)  -->
<svg version="1.1" id="Layer_1" xmlns="http://www.w3.org/2000/svg" xmlns:xlink="http://www.w3.org/1999/xlink" x="0px" y="0px"
	 viewBox="0 0 72 72" style="enable-background:new 0 0 72 72;" xml:space="preserve">
<style type="text/css">
	.st0{fill:#5EA8DC;}
</style>
<path class="st0" d="M48.3,7c0.9,0,1.8,0,2.6,0C51,7,51.1,7,51.1,7c3.5,0.4,6.5,1.8,9,4.3c0.2,0.2,0.3,0.2,0.6,0.1
	c3-0.6,5.9-1.7,8.6-3.3c0.1-0.1,0.2-0.2,0.4-0.1c-1.2,3.4-3.3,6-6.3,8c1.4-0.2,2.8-0.4,4.2-0.8c1.4-0.4,2.7-0.9,4-1.4
	c-0.1,0.1-0.1,0.1-0.1,0.2c-0.1,0.1-0.2,0.2-0.2,0.4c-1.9,2.6-4.1,4.9-6.7,6.9c-0.2,0.1-0.3,0.3-0.3,0.5c0.1,3.4-0.2,6.8-0.9,10.2
	c-2,9-6.4,16.7-13.3,22.9c-4.2,3.8-9,6.5-14.4,8.2c-3.5,1.1-7.1,1.7-10.8,1.9c-0.1,0-0.2,0-0.2,0.1c-1.3,0-2.7,0-4,0
	c0-0.1-0.1-0.1-0.2-0.1c-1.7-0.1-3.3-0.3-5-0.6c-5.4-0.9-10.4-2.9-15-5.8c-0.1,0-0.2-0.1-0.2-0.2c8,0.8,15.1-1.2,21.5-6
	c-0.7-0.1-1.5-0.1-2.2-0.3c-3.2-0.6-5.9-2-8.1-4.4c-1.4-1.5-2.5-3.3-3.2-5.3c-0.1-0.2-0.2-0.4,0.2-0.3c1.6,0.3,3.2,0.3,4.7,0
	c0.5-0.1,1-0.1,1.5-0.3C6.3,40,2.8,32.3,3.2,27.4c2,1.1,4.1,1.7,6.4,1.7c0-0.1-0.1-0.1-0.1-0.1c-0.8-0.6-1.6-1.2-2.2-1.9
	c-2.5-2.6-3.8-5.7-4-9.3C3.1,15,3.7,12.4,5.1,9.9c0.1-0.2,0.2-0.2,0.4,0c1,1.2,2.1,2.4,3.2,3.5c3.3,3.1,6.9,5.7,11,7.6
	c4.9,2.3,10,3.6,15.4,4c0.3,0,0.3-0.1,0.2-0.3c-0.4-1.8-0.4-3.7-0.1-5.5c1-6,5.8-10.8,11.7-11.9C47.4,7.1,47.9,7.1,48.3,7z"/>
</svg>
