<svg id="Layer_1" data-name="Layer 1" xmlns="http://www.w3.org/2000/svg" viewBox="0 0 576 576"><defs><style>.cls-1{fill:#c33;}.cls-11,.cls-2{font-size:36px;font-family:Ubuntu-Medium, Ubuntu;}.cls-2{fill:#fff;}.cls-3{letter-spacing:-0.01em;}.cls-4{letter-spacing:-0.01em;}.cls-5{letter-spacing:0.02em;}.cls-6{fill:#099;}.cls-7{fill:#d2b92b;}.cls-8{letter-spacing:-0.01em;}.cls-9{letter-spacing:0.02em;}.cls-10{fill:#a9abae;}.cls-11{fill:#231f20;}.cls-12{letter-spacing:-0.01em;}.cls-13,.cls-14{fill:none;stroke-miterlimit:10;}.cls-13{stroke:#231f20;stroke-width:3px;}.cls-14{stroke:#a9abae;stroke-width:7px;}</style></defs><title>Artboard 1</title><rect class="cls-1" x="117" y="36" width="342" height="72" rx="9" ry="9"/><text class="cls-2" transform="translate(139.25 80.7)"><tspan class="cls-3">w</tspan><tspan x="27.72" y="0">orking direc</tspan><tspan class="cls-4" x="227.52" y="0">t</tspan><tspan x="242.13" y="0">o</tspan><tspan class="cls-5" x="263.66" y="0">r</tspan><tspan x="278.82" y="0">y</tspan></text><rect class="cls-6" x="117" y="156.4" width="342" height="72" rx="9" ry="9"/><text class="cls-2" transform="translate(185.09 201.1)">staging area</text><rect class="cls-7" x="117" y="276.8" width="342" height="72" rx="9" ry="9"/><text class="cls-2" transform="translate(157.03 321.5)">local reposi<tspan class="cls-8" x="191.95" y="0">t</tspan><tspan x="206.56" y="0">o</tspan><tspan class="cls-9" x="228.09" y="0">r</tspan><tspan x="243.25" y="0">y</tspan></text><path id="path1937" class="cls-10" d="M91.81,59.76H68.12s-10.45.5-10.45,10V88.53H51.19L62.44,108,73.68,88.53H67.12V71.9s-.1-2.49,3-2.49h21.6Z"/><text class="cls-11" transform="translate(29.67 147.38)">add</text><text class="cls-11" transform="translate(440.95 268.53)"><tspan class="cls-12">c</tspan><tspan x="16.6" y="0">ommit</tspan></text><path id="path1937-2" data-name="path1937" class="cls-10" d="M59.74,162.09v23.69s.5,10.45,10,10.45H88.51v6.47L108,191.47,88.51,180.22v6.56H71.89s-2.49.1-2.49-3v-21.6Z"/><path id="path1937-3" data-name="path1937" class="cls-10" d="M91.81,59.76H68.12s-10.45.5-10.45,10V88.53H51.19L62.44,108,73.68,88.53H67.12V71.9s-.1-2.49,3-2.49h21.6Z"/><path id="path1937-4" data-name="path1937" class="cls-10" d="M481.65,187.51h23.69s10.45.5,10.45,10v18.81h6.47L511,235.76l-11.24-19.47h6.56V199.66s.1-2.49-3-2.49h-21.6Z"/><path id="path1937-5" data-name="path1937" class="cls-10" d="M513.41,283.89v23.69s-.5,10.45-10,10.45H484.65v6.47l-19.47-11.24L484.65,302v6.56h16.62s2.49.1,2.49-3V284Z"/><path class="cls-13" d="M428,500.37c0,13.58-16.57,24.57-37,24.57-11.38,0-21.57-3.41-28.35-8.77a69.87,69.87,0,0,1-39,7c-9,17.37-28.93,29.45-52.09,29.45-18.41,0-34.8-7.64-45.25-19.51a57.23,57.23,0,0,1-28.21,7.24c-27.69,0-50.15-18.7-50.15-41.77,0-20.75,18.14-37.93,41.93-41.2a50.16,50.16,0,0,1-2.2-14.72c0-30.22,27.11-54.74,60.55-54.74,30.43,0,55.62,20.29,59.92,46.72a70,70,0,0,1,23.12-3.86c31.41,0,57,20,57.87,45,.59,0,1.21,0,1.82,0C411.44,475.78,428,486.79,428,500.37Z"/><text class="cls-11" transform="translate(181.04 500.36)">GitHub repo.</text><path class="cls-14" d="M135.47,357.58c-15.59,21.39-18,69.7,5.26,93.88"/><polygon class="cls-10" points="129.71 459.91 157.5 462.53 145.87 437.14 129.71 459.91"/><path class="cls-14" d="M412.06,469.47c22.21-18,31.3-60.9,21.13-93.68"/><polygon class="cls-10" points="447.22 374.07 424.69 357.58 421.67 385.33 447.22 374.07"/><text class="cls-11" transform="translate(454.34 433.23)">pull</text><text class="cls-11" transform="translate(25.61 428.99)">push</text></svg>